# xmcd CD database file
#
# Track frame offsets:
#	150
#	22917
#	44817
#	63197
#	84200
#	104805
#	120710
#	137445
#	161535
#	178877
#
# Disc length: 2659 seconds
#
# Revision: 0
# Processed by: cddbd v1.4PL0 Copyright (c) Steve Scherf et al.
# Submitted via: CDex 1.50
#
DISCID=820a610a
DTITLE=Darryl Alexander - Tea For Two
DYEAR=2000
DGENRE=Jazz
TTITLE0=Darryl Alexander - Tea For Two - Can This be Love
TTITLE1=Darryl Alexander - Tea For Two - Mirage
TTITLE2=Darryl Alexander - Tea For Two - Changing The Guard
TTITLE3=Darryl Alexander - Tea For Two - City Without Walls
TTITLE4=Darryl Alexander - Tea For Two - Lets Take A Chance
TTITLE5=Darryl Alexander - Tea For Two - Just Another Attitude
TTITLE6=Darryl Alexander - Tea For Two - Ms. Information
TTITLE7=Darryl Alexander - Tea For Two - Street Talk
TTITLE8=Darryl Alexander - Tea For Two - Soul Siesta
TTITLE9=Darryl Alexander - Tea For Two - Does It Really Matter
EXTD=YEAR: 2000
EXTT0=
EXTT1=
EXTT2=
EXTT3=
EXTT4=
EXTT5=
EXTT6=
EXTT7=
EXTT8=
EXTT9=
PLAYORDER=
